HIERARCHY
ROOT root
{
	OFFSET 0.000000 0.000000 0.000000
	CHANNELS 6 Xposition Yposition Zposition Zrotation Yrotation Xrotation
	JOINT lhip
	{
		OFFSET 0.058581 -0.082280 -0.017664
		CHANNELS 3 Zrotation Yrotation Xrotation
		JOINT lknee
		{
			OFFSET 0.043451 -0.386469 0.008037
			CHANNELS 3 Zrotation Yrotation Xrotation
			JOINT lankle
			{
				OFFSET -0.014790 -0.426874 -0.037428
				CHANNELS 3 Zrotation Yrotation Xrotation
				JOINT ltoe
				{
					OFFSET 0.041054 -0.060286 0.122042
					CHANNELS 3 Zrotation Yrotation Xrotation
					End Site
					{
						OFFSET 0.000000 0.000000 0.000000
					}
				}
			}
		}
	}
	JOINT rhip
	{
		OFFSET -0.060310 -0.090513 -0.013543
		CHANNELS 3 Zrotation Yrotation Xrotation
		JOINT rknee
		{
			OFFSET -0.043257 -0.383688 -0.004843
			CHANNELS 3 Zrotation Yrotation Xrotation
			JOINT rankle
			{
				OFFSET 0.019056 -0.420046 -0.034562
				CHANNELS 3 Zrotation Yrotation Xrotation
				JOINT rtoe
				{
					OFFSET -0.034840 -0.062106 0.130323
					CHANNELS 3 Zrotation Yrotation Xrotation
					End Site
					{
						OFFSET 0.000000 0.000000 0.000000
					}
				}
			}
		}
	}
	JOINT lowerback
	{
		OFFSET 0.004439 0.124404 -0.038385
		CHANNELS 3 Zrotation Yrotation Xrotation
		JOINT upperback
		{
			OFFSET 0.004488 0.137956 0.026820
			CHANNELS 3 Zrotation Yrotation Xrotation
			JOINT chest
			{
				OFFSET -0.002265 0.056032 0.002855
				CHANNELS 3 Zrotation Yrotation Xrotation
				JOINT lowerneck
				{
					OFFSET -0.013390 0.211636 -0.033468
					CHANNELS 3 Zrotation Yrotation Xrotation
					JOINT upperneck
					{
						OFFSET 0.010113 0.088937 0.050410
						CHANNELS 3 Zrotation Yrotation Xrotation
						End Site
						{
							OFFSET 0.000000 0.000000 0.000000
						}
					}
				}
				JOINT lclavicle
				{
					OFFSET 0.071702 0.114000 -0.018898
					CHANNELS 3 Zrotation Yrotation Xrotation
					JOINT lshoulder
					{
						OFFSET 0.122921 0.045205 -0.019046
						CHANNELS 3 Zrotation Yrotation Xrotation
						JOINT lelbow
						{
							OFFSET 0.255332 -0.015649 -0.022946
							CHANNELS 3 Zrotation Yrotation Xrotation
							JOINT lwrist
							{
								OFFSET 0.265709 0.012698 -0.007375
								CHANNELS 3 Zrotation Yrotation Xrotation
								End Site
								{
									OFFSET 0.000000 0.000000 0.000000
								}
							}
						}
					}
				}
				JOINT rclavicle
				{
					OFFSET -0.082954 0.112472 -0.023707
					CHANNELS 3 Zrotation Yrotation Xrotation
					JOINT rshoulder
					{
						OFFSET -0.113228 0.046853 -0.008472
						CHANNELS 3 Zrotation Yrotation Xrotation
						JOINT relbow
						{
							OFFSET -0.260127 -0.014369 -0.031269
							CHANNELS 3 Zrotation Yrotation Xrotation
							JOINT rwrist
							{
								OFFSET -0.269108 0.006794 -0.006027
								CHANNELS 3 Zrotation Yrotation Xrotation
								End Site
								{
									OFFSET 0.000000 0.000000 0.000000
								}
							}
						}
					}
				}
			}
		}
	}
}
MOTION
Frames: 8
Frame Time: 0.033333
0.625397 -1.676038 0.785998 162.019075 3.189307 88.739666 23.934521 6.197378 -53.605600 -9.285281 11.558540 37.327872 -9.778127 -0.356234 11.756970 0.000000 -0.000000 0.000000 -36.634494 -12.421821 -8.449119 8.983664 6.193611 49.910987 8.135570 8.167350 -23.331375 0.000000 -0.000000 0.000000 3.507908 17.089905 35.358209 3.227092 1.981971 19.337608 2.013855 5.135145 -5.083052 5.029498 -0.920502 -7.971035 6.742896 -2.990795 -12.645828 -28.159136 -5.638402 7.196356 -67.956042 17.580712 14.023106 -15.929264 -44.913696 37.907285 6.348236 -1.620143 -15.419744 21.476246 19.202018 4.506526 15.900434 13.766961 -13.360571 -42.656487 53.345007 -38.797416 29.064406 -3.068986 5.362590 
0.577688 -1.566234 0.785146 151.838218 7.104699 90.274238 25.169745 17.252567 -56.491515 -8.520706 17.213055 58.091034 -5.077236 -4.254934 -3.986743 0.000000 -0.000000 0.000000 -35.486833 -12.156959 -9.727236 4.421186 10.327229 38.788518 10.475588 7.139287 -13.702065 0.000000 -0.000000 0.000000 0.805830 15.889357 34.373310 2.244199 0.832305 12.223250 2.054459 3.492618 -1.744194 5.928265 -3.206221 -9.588649 11.020217 -2.237799 -8.629199 -29.162934 -5.612470 9.353272 -69.435168 14.971478 12.624976 -20.393110 -41.058227 43.023398 3.482510 -7.510263 -19.332448 20.698717 14.073887 3.003743 22.927598 11.808845 -11.579627 -63.034452 63.559579 -59.931618 43.512335 4.042858 -19.203654 
0.530342 -1.463667 0.797481 143.121107 10.655657 88.927469 25.015199 20.712593 -51.094431 -4.072711 19.970629 67.134925 1.253691 -2.173662 -20.401688 0.000000 -0.000000 0.000000 -33.653710 -15.493868 -12.953127 1.558240 -1.729601 34.032835 7.978408 4.126388 -15.158574 0.000000 -0.000000 0.000000 -0.294199 12.217136 36.404903 1.621262 -2.518481 11.379189 2.760639 1.078471 -2.403106 7.471251 -6.515361 -11.979777 11.692646 -3.915008 -8.244237 -30.192995 -8.563734 10.944307 -68.598350 11.563814 10.203318 -19.169192 -39.133802 41.711642 -9.055905 -15.435847 -2.011283 18.273827 15.615125 3.607021 24.331646 8.991171 -11.464746 -62.897081 65.528969 -62.626161 50.053147 14.344189 -26.339526 
0.473254 -1.334222 0.816517 128.383722 13.776569 85.519082 27.118270 20.827049 -40.981454 -0.574620 23.787428 74.211651 2.747695 4.011755 -28.864405 0.000000 -0.000000 0.000000 -25.616352 -15.228563 -24.603053 3.150571 -8.917787 44.419620 8.066015 1.623675 -15.359735 0.000000 -0.000000 0.000000 -2.132365 7.903417 36.243799 2.057866 -3.088851 11.259436 2.230503 -0.785018 -2.608440 9.860825 -13.002856 -12.059451 13.867162 -12.329971 -9.790209 -29.753170 -9.001349 10.696793 -64.651656 10.937378 11.840488 -19.980800 -38.208288 54.254327 -21.491655 -6.083188 10.691769 17.399493 14.839428 2.406585 27.592191 7.135819 -12.671271 -47.927650 61.521094 -45.929079 55.405363 15.525163 -29.325934 
0.442411 -1.257854 0.832138 121.045045 13.869240 84.310153 23.759687 20.755899 -38.657356 0.606139 23.420011 77.253198 2.303003 7.456506 -25.864862 0.000000 -0.000000 0.000000 -20.531476 -14.863180 -31.421983 2.677681 -12.177612 53.167646 5.362916 -0.852620 -16.287512 0.000000 -0.000000 0.000000 -3.817652 5.771484 35.656712 2.981054 -4.110566 9.466896 2.749960 -2.004947 -2.206773 10.143915 -18.920982 -9.961360 15.348979 -15.970802 -11.931012 -30.555420 -8.048019 12.015691 -64.345796 11.653576 11.331428 -16.366933 -34.921853 48.230829 -16.767309 -4.369548 4.868951 18.424312 13.844758 1.884614 28.095272 6.145879 -13.973491 -38.540811 55.409484 -37.676371 51.947445 11.564169 -28.876099 
0.402395 -1.150660 0.853149 111.458783 12.544669 81.239158 20.548582 17.809848 -35.788701 0.947394 23.645568 81.454369 -0.521921 6.648871 -14.353595 0.000000 -0.000000 0.000000 -16.907818 -12.607542 -35.464788 2.364294 -17.348537 62.497126 2.903975 -3.264523 -16.070310 0.000000 -0.000000 0.000000 -3.744326 2.209088 36.721723 3.692443 -5.644293 7.541151 2.545849 -3.314597 -2.585708 10.101600 -25.945670 -9.402800 16.749869 -20.946981 -13.933814 -31.527150 -7.867182 13.347762 -66.188357 10.238886 12.879448 -12.657960 -25.186005 35.147038 -4.027444 -10.091985 -10.172171 17.572973 14.213074 0.774483 26.766493 5.089849 -14.234947 -27.212393 41.881913 -30.285831 44.425204 8.819464 -28.319504 
0.364186 -1.043602 0.868370 101.823108 9.888741 80.224943 16.796533 13.967867 -37.516806 -3.792254 20.327427 82.718515 -3.599064 -0.283842 -3.386281 0.000000 -0.000000 0.000000 -14.953116 -11.308074 -39.576402 1.570747 -19.082728 70.430841 2.235748 -2.110344 -15.274079 0.000000 -0.000000 0.000000 -3.242876 0.509947 36.473944 4.916661 -6.528054 6.619838 3.250559 -4.508395 -4.535645 12.452589 -31.444699 -10.285824 17.793213 -23.173184 -17.100267 -32.061031 -8.122225 13.972846 -68.180148 11.128730 13.748765 -10.107286 -22.272755 40.156946 -10.722740 -9.855468 1.075306 15.235234 14.431381 0.035056 25.357090 2.404529 -17.111298 -22.927555 32.691507 -28.835791 44.644653 8.017182 -27.704320 
0.330031 -0.940332 0.874455 90.862036 5.444137 80.387822 15.824063 10.984152 -37.503112 -3.263779 17.924750 80.126038 -1.215816 4.454042 -5.690416 0.000000 -0.000000 0.000000 -13.768065 -10.221921 -44.784596 2.268790 -15.392514 78.246657 2.216076 -2.845211 -15.532621 0.000000 -0.000000 0.000000 -5.228980 0.368725 34.622753 6.161987 -6.826039 4.943828 4.080179 -5.528499 -4.046253 15.709592 -32.103408 -11.534199 18.836450 -23.434809 -18.165214 -30.476004 -5.459431 14.944203 -68.179029 12.200026 13.164891 -13.202761 -25.680550 40.367855 -6.528165 -9.720229 -5.337335 14.094156 12.097241 -1.451322 27.060145 3.359446 -16.314020 -26.770085 31.700703 -32.996039 39.542243 6.394128 -27.157066 
